<svg xmlns="http://www.w3.org/2000/svg" width="352" height="377" fill="none" viewBox="0 0 352 377"><path fill="#FF9F1C" d="M160.3 44.5C154 47.2 154 47.5 154 93.4C154 131.9 153.9 135 152.3 135.8C151.3 136.3 149.8 136.5 149 136.3C148.2 136 134.2 122.5 118 106.4L88.4 77H84.1C79.9 77 79.3 77.4 69.8 86.7C64.3 92.1 59.1 97.8 58.3 99.4C55.2 105.4 56 106.5 87.5 138C107 157.5 117 168.2 117 169.5C117 174 116.7 174 72.2 174H29.8L26.9 176.9L24 179.8V195.5V211.2L27.4 214.6L30.8 218H54.5C69.3 218 79.9 217.6 82.8 216.8C87 215.8 89.6 213.6 106 197.5C125.8 178.1 130.1 174.7 141.3 169.5C151.7 164.7 159 163 172.1 162.3C185.4 161.6 193.4 162.8 205.4 167.1C219 172 226.8 177.7 247 197.6C261.8 212.1 266.3 216 269.5 216.9C274.5 218.3 318.9 218.4 322.4 217C323.8 216.5 325.9 214.6 327 212.8C328.9 209.8 329 208.1 328.8 194.8L328.5 180.1L325.6 177.1L322.6 174L280.2 173.8L237.7 173.5L236.2 171.2C234.7 168.9 235.3 168.3 264.3 139.2C280.6 122.9 294.3 108.3 294.9 106.8C296.8 101.7 294.7 98 283.7 87.2C273.9 77.6 273 77 269.2 77C264.1 77 265.1 76.1 231.6 109.6C216.5 124.6 203.7 137 203.1 137C202.5 137 201.1 136.1 200 135C198.1 133.1 198 131.7 198 91.5C198 45.7 198.1 46.3 191.8 44.1C187.2 42.5 164.2 42.8 160.3 44.5ZM166.3 189C158.2 190.5 149.1 194.6 142 199.9C138.4 202.6 116.9 223.6 94.1 246.5L52.7 288.2L68.3 303.8L84 319.5L126.2 277.4C149.5 254.2 169.5 234.7 170.7 234.1C174.5 232.2 180.6 232.8 183.7 235.4C185.2 236.7 204.8 256.1 227.2 278.4C249.6 300.7 268.3 319 268.8 319C269.2 319 276.4 312.1 284.7 303.7L299.9 288.4L254.7 243.4C207.8 196.7 206.3 195.4 193.5 191C186.9 188.7 173.5 187.8 166.3 189ZM166.4 306.5C156.8 311.3 154 317.8 154 335.6V348H176.6H199.2L198.8 334.2C198.5 322.7 198.1 319.9 196.3 316.5C190.2 305 177.8 300.8 166.4 306.5Z"/></svg>